<?xml version="1.0" standalone="no"?>
<!DOCTYPE svg PUBLIC "-//W3C//DTD SVG 20010904//EN"
 "http://www.w3.org/TR/2001/REC-SVG-20010904/DTD/svg10.dtd">
<svg version="1.0" xmlns="http://www.w3.org/2000/svg"
 width="736.000000pt" height="736.000000pt" viewBox="0 0 736.000000 736.000000"
 preserveAspectRatio="xMidYMid meet">

<g transform="translate(0.000000,736.000000) scale(0.100000,-0.100000)"
fill="#000000" stroke="none">
<path d="M1467 6153 c-4 -3 -7 -26 -7 -50 0 -49 -4 -52 -31 -20 -15 18 -20 19
-28 8 -5 -8 -7 -30 -4 -49 4 -23 3 -33 -4 -29 -26 16 -31 -19 -11 -82 20 -66
18 -111 -6 -111 -12 0 -83 -129 -337 -615 l-68 -130 55 -175 c45 -145 64 -236
114 -525 34 -192 70 -399 81 -460 23 -121 26 -304 8 -384 -6 -25 -12 -116 -14
-201 -1 -85 -7 -186 -13 -225 -13 -82 -38 -399 -48 -599 -6 -127 -11 -152 -50
-275 -24 -75 -57 -192 -73 -261 -16 -69 -60 -251 -96 -405 -81 -342 -75 -311
-64 -344 12 -35 46 -51 105 -51 37 0 51 6 75 29 27 28 29 34 29 110 0 79 2 87
79 269 244 580 333 801 362 902 21 71 91 368 110 468 6 34 14 62 18 62 3 0 30
-44 59 -98 28 -53 83 -153 120 -222 220 -404 230 -424 236 -480 24 -202 51
-312 110 -458 25 -59 66 -174 92 -257 43 -135 47 -159 46 -235 -3 -133 -17
-124 172 -117 172 6 223 16 333 68 66 31 89 63 60 84 -9 6 -62 22 -119 34 -57
13 -133 29 -169 37 l-67 15 -31 107 c-17 59 -37 136 -46 172 -13 56 -55 497
-59 615 l-1 40 823 5 824 5 24 28 24 28 0 480 c0 469 0 479 -20 499 -12 12
-32 25 -46 30 -15 6 -345 10 -845 10 -883 0 -871 1 -901 -52 -9 -17 -14 -93
-18 -283 l-5 -260 -97 295 c-89 270 -118 380 -118 451 0 20 7 30 31 39 l31 13
-9 66 c-8 67 -6 441 3 473 4 14 17 8 68 -36 153 -130 277 -210 344 -222 22 -4
37 -15 44 -30 6 -13 19 -24 29 -24 24 0 58 -46 52 -69 -6 -25 35 -55 54 -39
18 14 69 -7 76 -33 6 -23 67 -28 67 -5 0 20 62 28 76 10 17 -21 64 2 64 30 0
25 36 51 67 47 25 -3 47 30 38 58 -8 25 11 71 30 71 26 0 30 49 6 71 -24 23
-28 61 -7 78 19 16 -2 61 -27 61 -26 0 -57 40 -51 65 6 26 -39 56 -57 38 -14
-14 -69 6 -69 24 0 8 -12 18 -27 24 -24 9 -30 7 -42 -10 -14 -23 -65 -29 -77
-10 -3 6 -15 9 -25 6 -11 -3 -19 -2 -19 1 0 4 11 88 25 186 14 99 25 183 25
188 0 4 222 8 494 8 l493 0 33 23 c18 12 43 35 54 50 21 28 21 35 21 682 0
647 0 654 -21 682 -11 15 -36 38 -54 51 l-33 22 -771 0 c-860 0 -815 4 -863
-69 l-23 -34 0 -644 0 -644 -31 23 c-18 13 -68 41 -113 63 -72 36 -82 45 -91
77 -5 20 -18 45 -27 55 -10 11 -18 32 -18 46 0 26 2 27 59 27 35 0 63 5 67 12
4 6 9 45 12 87 3 42 11 85 19 97 12 19 10 25 -17 59 -23 29 -30 48 -30 84 -1
25 -7 57 -15 71 -20 34 -19 36 15 50 67 28 101 108 66 156 -11 14 -27 19 -68
20 -36 1 -64 8 -88 22 -54 33 -102 28 -155 -18 -18 -15 -172 -46 -182 -36 -2
2 3 21 11 41 9 21 16 46 16 57 0 14 18 27 67 49 89 40 139 77 123 93 -6 6 -36
11 -66 11 l-56 0 -1 120 c-1 66 -6 122 -12 125 -5 3 -17 -15 -26 -40 l-17 -45
-12 43 c-14 43 -32 67 -43 55z m38 -88 c9 -62 21 -64 35 -5 23 95 34 71 26
-58 l-7 -122 67 0 c58 0 65 -2 54 -15 -7 -8 -53 -35 -102 -59 l-91 -44 -43 21
c-47 22 -50 27 -34 58 8 14 5 35 -12 83 -23 66 -18 98 8 61 13 -18 14 -14 8
38 -4 31 -4 57 -1 57 4 0 17 -19 29 -42 l23 -43 3 75 c3 65 5 73 17 57 7 -10
16 -38 20 -62z m2253 46 c76 -39 72 -2 72 -726 0 -632 0 -648 -20 -680 -41
-66 -35 -65 -575 -65 -458 0 -486 1 -481 18 3 9 15 91 26 182 26 199 32 221
77 262 39 37 73 96 73 129 0 17 3 19 14 10 8 -7 12 -21 9 -31 -3 -11 2 -31 11
-45 28 -43 95 -26 98 25 2 32 160 207 191 212 27 5 147 -52 147 -69 0 -20 47
-45 70 -38 25 8 43 41 37 67 -7 24 52 148 70 148 6 0 28 -9 47 -21 l36 -21 0
120 c0 71 -4 123 -10 127 -10 6 -210 -114 -210 -126 0 -3 18 -14 40 -24 22
-10 40 -22 40 -28 0 -25 -65 -128 -84 -133 -34 -8 -132 40 -148 73 -19 40 -70
44 -93 9 -10 -14 -15 -33 -11 -41 3 -10 -23 -46 -77 -103 -45 -48 -87 -88 -93
-90 -7 -2 -48 43 -92 100 -44 57 -96 123 -116 148 -21 27 -36 56 -36 72 0 19
-9 33 -26 45 -24 15 -29 15 -53 2 -14 -8 -28 -26 -31 -40 -7 -38 -249 -289
-277 -289 -26 0 -63 -33 -63 -56 0 -22 17 -51 35 -58 27 -10 64 12 72 42 9 34
263 302 286 302 8 0 45 -39 83 -88 l69 -88 -3 -62 c-2 -34 -8 -62 -13 -62 -5
0 -9 7 -9 15 0 24 -60 85 -84 85 -33 0 -37 -9 -20 -41 l14 -29 -32 7 c-52 9
-53 9 -53 -12 0 -13 11 -25 33 -34 42 -19 41 -31 -3 -31 -39 0 -44 -12 -15
-37 13 -11 16 -21 10 -28 -6 -7 -13 -34 -16 -61 -4 -27 -11 -54 -16 -61 -5 -6
-35 -87 -67 -180 l-58 -168 -173 -3 -173 -2 -48 52 -49 53 0 641 0 641 23 34
c48 72 5 69 850 69 726 0 759 -1 795 -19z m-2320 -341 c28 -17 52 -36 52 -42
0 -36 -36 -96 -73 -123 -59 -43 -70 -73 -69 -177 1 -81 -2 -99 -40 -201 -22
-61 -44 -115 -48 -120 -3 -4 -20 -1 -36 7 -40 20 -124 32 -124 17 0 -6 16 -11
36 -11 20 0 52 -8 72 -17 l37 -18 -50 -11 c-52 -11 -120 -42 -112 -50 3 -3 33
4 67 16 95 32 99 30 132 -75 15 -49 28 -96 28 -103 0 -7 -30 -27 -66 -43 -37
-17 -84 -41 -105 -55 -21 -13 -41 -24 -43 -24 -5 0 -88 256 -101 312 -6 22 23
84 160 345 192 365 213 403 223 403 4 0 31 -14 60 -30z m446 -330 c9 -22 16
-58 16 -79 0 -27 8 -49 25 -69 29 -34 31 -45 10 -62 -10 -8 -15 -37 -17 -93
l-3 -82 -62 2 -63 1 0 -35 c0 -34 -1 -35 -27 -29 -16 4 -65 10 -110 13 -72 5
-83 8 -83 24 0 15 8 19 40 19 52 0 92 21 125 64 15 19 36 37 48 39 19 4 18 4
-4 6 -31 1 -46 17 -59 62 -21 72 17 94 50 29 20 -38 38 -56 26 -25 -3 8 0 27
6 40 9 20 9 41 -1 90 -15 73 -10 98 22 113 36 18 44 14 61 -28z m1016 -134 c0
-35 -5 -58 -15 -66 -18 -15 -19 -2 -9 74 9 63 24 58 24 -8z m-1459 -148 c25
-36 51 -62 87 -86 34 -22 26 -63 -13 -74 -20 -5 -45 -28 -74 -68 -31 -41 -54
-61 -74 -66 -16 -3 -30 -4 -33 -2 -2 3 -18 50 -35 107 l-31 102 38 102 c20 56
41 113 46 127 9 23 11 20 37 -42 16 -36 39 -81 52 -100z m1358 117 c17 -20 31
-40 31 -45 0 -4 3 -15 6 -23 3 -8 -1 -17 -9 -20 -10 -4 -27 13 -51 53 -20 32
-36 61 -36 64 0 17 32 2 59 -29z m-47 -44 c38 -14 46 -53 18 -88 -22 -29 -50
-87 -50 -106 0 -20 17 7 29 45 7 20 28 50 46 65 19 15 54 45 77 65 75 64 55
-17 -24 -98 -22 -23 -45 -60 -52 -85 l-14 -44 -43 3 c-24 2 -47 9 -52 15 -9
15 0 73 18 109 12 24 11 28 -9 43 -20 15 -19 15 22 9 23 -3 42 -2 42 3 0 15
-39 53 -54 53 -8 0 -20 8 -27 17 -13 15 -11 16 16 10 17 -3 42 -10 57 -16z
m-1003 -254 c59 -20 66 -25 78 -61 12 -37 12 -38 -10 -32 -69 20 -192 27 -279
16 -50 -6 -95 -13 -100 -16 -19 -12 -5 14 30 55 28 32 48 45 77 51 72 14 139
10 204 -13z m1029 -12 c5 -5 -117 -901 -130 -951 -16 -67 -54 -105 -111 -111
-40 -5 -58 -1 -110 26 -67 34 -174 112 -275 200 l-62 53 6 202 c4 110 9 227
13 258 l6 57 45 -53 c102 -121 413 -476 416 -476 13 0 -3 24 -61 90 -36 41
-65 81 -65 88 0 7 48 152 107 323 l108 311 55 -7 c30 -4 57 -8 58 -10z m-985
-95 c77 -19 229 -91 276 -130 l23 -20 -19 -477 c-15 -375 -17 -494 -8 -551 13
-79 9 -86 -48 -98 -12 -2 -58 -11 -102 -20 -181 -35 -383 -29 -570 18 l-90 23
3 75 c3 60 -13 171 -77 541 -45 257 -81 474 -81 482 0 18 147 96 240 127 156
53 320 64 453 30z m727 -252 c0 -18 -84 -258 -90 -257 -6 0 -197 220 -219 250
-13 19 -10 19 148 19 120 0 161 -3 161 -12z m374 -521 c117 -67 94 -240 -37
-275 -65 -18 -133 10 -166 68 -77 137 68 285 203 207z m1150 -743 l26 -27 0
-469 0 -470 -29 -29 -30 -29 -817 2 -817 3 -13 62 c-7 34 -31 122 -53 197
l-41 135 0 301 0 301 25 24 24 25 849 0 849 0 27 -26z m-2501 -225 c61 -18 70
-24 83 -54 17 -40 17 -45 5 -45 -5 0 -14 15 -20 33 -10 30 -17 34 -95 56 -91
26 -135 47 -77 37 19 -4 66 -15 104 -27z m-513 -1766 l40 -6 0 -53 0 -54 -34
0 c-18 0 -61 3 -96 7 l-62 6 6 36 c3 20 10 52 16 72 l10 36 40 -19 c22 -11 58
-22 80 -25z m1673 -35 c81 -17 147 -35 147 -40 0 -13 -96 -57 -163 -75 -73
-20 -340 -24 -358 -6 -6 6 -8 24 -5 41 7 27 11 30 62 36 64 7 109 28 124 56
14 26 20 26 193 -12z m175 -60 c-7 -19 -125 -76 -196 -94 -89 -22 -355 -25
-359 -4 -3 13 20 15 159 15 178 0 257 16 343 69 45 28 59 32 53 14z m-1831
-33 c35 -11 -24 -55 -73 -55 -43 0 -94 27 -94 49 0 20 4 20 78 15 42 -3 83 -7
89 -9z"/>
<path d="M2368 5963 c72 -2 192 -2 265 0 72 1 13 3 -133 3 -146 0 -205 -2
-132 -3z"/>
<path d="M2368 5903 c72 -2 192 -2 265 0 72 1 13 3 -133 3 -146 0 -205 -2
-132 -3z"/>
<path d="M2240 5850 c0 -6 93 -10 260 -10 167 0 260 4 260 10 0 6 -93 10 -260
10 -167 0 -260 -4 -260 -10z"/>
<path d="M2368 5793 c72 -2 192 -2 265 0 72 1 13 3 -133 3 -146 0 -205 -2
-132 -3z"/>
<path d="M2368 5733 c72 -2 192 -2 265 0 72 1 13 3 -133 3 -146 0 -205 -2
-132 -3z"/>
<path d="M3160 5050 c-10 -6 70 -10 248 -10 147 0 262 4 262 9 0 12 -491 14
-510 1z"/>
<path d="M3278 4993 c72 -2 192 -2 265 0 72 1 13 3 -133 3 -146 0 -205 -2
-132 -3z"/>
<path d="M3278 4933 c72 -2 192 -2 265 0 72 1 13 3 -133 3 -146 0 -205 -2
-132 -3z"/>
<path d="M3151 4885 c7 -6 510 -7 517 -1 3 3 -113 6 -258 6 -145 0 -261 -2
-259 -5z"/>
<path d="M3283 4823 c76 -2 198 -2 270 0 73 1 11 3 -138 3 -148 0 -208 -2
-132 -3z"/>
<path d="M2492 2848 l-2 -427 -27 -4 -28 -4 27 -2 c19 -1 28 -7 31 -23 l4 -23
2 23 1 22 713 1 c391 1 702 4 690 6 l-23 4 -2 267 -3 267 -42 3 -43 3 -2 -268
-3 -268 -75 1 -75 1 -5 189 -5 189 -30 0 -30 0 -5 -190 -5 -190 -110 0 -110 0
-3 228 -2 227 -45 0 -45 0 0 -228 0 -228 -75 1 -75 0 0 383 0 382 -40 0 -40 0
0 -385 0 -386 -62 3 -63 3 -3 338 -2 337 -39 0 c-25 0 -41 -5 -45 -15 -3 -8
-5 -160 -5 -338 l0 -322 -76 0 -75 0 0 253 0 253 -36 -3 -35 -3 -2 -250 -2
-250 -30 0 -30 0 -5 425 -5 425 -3 -427z m378 -93 l0 -335 -30 0 -30 0 0 335
0 335 30 0 30 0 0 -335z m990 -70 l0 -265 -30 0 -30 0 0 265 0 265 30 0 30 0
0 -265z m-542 -37 l-3 -223 -30 0 -30 0 -3 210 c-1 115 0 215 2 222 3 7 19 13
36 13 l30 0 -2 -222z"/>
<path d="M2423 3193 c9 -2 23 -2 30 0 6 3 -1 5 -18 5 -16 0 -22 -2 -12 -5z"/>
<path d="M2423 3083 c9 -2 23 -2 30 0 6 3 -1 5 -18 5 -16 0 -22 -2 -12 -5z"/>
<path d="M2423 2973 c9 -2 23 -2 30 0 6 3 -1 5 -18 5 -16 0 -22 -2 -12 -5z"/>
<path d="M2423 2863 c9 -2 23 -2 30 0 6 3 -1 5 -18 5 -16 0 -22 -2 -12 -5z"/>
<path d="M2423 2753 c9 -2 23 -2 30 0 6 3 -1 5 -18 5 -16 0 -22 -2 -12 -5z"/>
<path d="M2423 2643 c9 -2 23 -2 30 0 6 3 -1 5 -18 5 -16 0 -22 -2 -12 -5z"/>
<path d="M2423 2533 c9 -2 23 -2 30 0 6 3 -1 5 -18 5 -16 0 -22 -2 -12 -5z"/>
<path d="M4600 5940 c-13 -24 -65 -27 -78 -4 -8 14 -12 14 -45 -2 -26 -13 -37
-24 -37 -40 0 -27 -40 -55 -61 -43 -28 15 -76 -69 -49 -86 15 -9 -16 -61 -40
-68 -27 -7 -30 -82 -2 -89 23 -6 27 -57 7 -72 -14 -10 -14 -15 0 -49 12 -28
21 -37 40 -37 28 0 49 -32 42 -61 -8 -28 39 -62 75 -54 39 9 66 -2 70 -28 4
-32 72 -37 100 -8 22 25 45 27 68 6 16 -14 21 -14 54 1 25 13 36 24 36 40 0
29 24 47 54 42 34 -7 75 46 58 73 -9 14 -9 25 0 44 6 14 15 25 19 25 4 0 15 7
23 16 23 22 20 67 -4 82 -24 15 -27 60 -4 76 14 11 14 15 -2 50 -13 26 -23 36
-36 33 -23 -7 -53 29 -50 61 2 37 -40 69 -72 54 -26 -11 -76 10 -76 32 0 31
-74 36 -90 6z m74 -23 c7 -29 66 -53 94 -38 15 8 23 6 36 -8 9 -10 14 -25 11
-33 -8 -20 43 -81 62 -74 8 4 18 -5 26 -21 9 -21 9 -27 -1 -31 -12 -4 -16 -59
-6 -86 3 -9 12 -16 20 -16 25 0 17 -49 -9 -59 -31 -12 -55 -67 -40 -90 15 -24
-9 -55 -35 -47 -24 8 -86 -40 -78 -61 3 -8 -5 -18 -20 -25 -22 -10 -27 -9 -35
4 -5 9 -17 15 -26 13 -63 -13 -73 -17 -73 -30 0 -24 -51 -19 -57 5 -7 26 -68
53 -92 41 -22 -12 -56 12 -47 34 9 24 -42 87 -64 80 -20 -6 -36 33 -20 49 19
19 12 85 -10 98 -28 18 -26 56 4 64 27 7 52 70 35 90 -15 18 11 55 33 48 26
-8 78 32 78 61 0 25 37 42 54 25 19 -19 85 -12 98 10 18 28 54 26 62 -3z"/>
<path d="M4532 5779 c-134 -68 -132 -259 2 -320 54 -24 100 -24 154 2 122 60
132 238 17 309 -52 32 -121 36 -173 9z m144 -18 c47 -21 80 -69 89 -126 15
-95 -81 -185 -181 -170 -34 5 -55 16 -84 45 -80 80 -59 204 44 251 52 23 80
23 132 0z"/>
<path d="M5242 5770 c-56 -34 -73 -74 -70 -160 l3 -75 -40 -20 c-32 -17 -41
-28 -43 -52 -4 -39 35 -73 85 -73 31 0 34 -2 27 -22 -4 -13 -13 -32 -20 -43
-21 -29 -17 -54 10 -67 19 -8 28 -23 35 -60 6 -27 18 -63 27 -80 16 -31 22
-32 90 -12 16 4 23 0 27 -18 4 -13 3 -24 -2 -26 -37 -13 -42 -26 -32 -96 l10
-69 -90 -121 c-50 -66 -94 -122 -98 -124 -4 -1 -24 37 -45 85 -21 49 -42 92
-46 96 -8 9 -420 -260 -420 -273 0 -4 27 -56 60 -115 41 -73 60 -118 60 -142
0 -47 35 -111 74 -134 23 -13 49 -48 86 -114 29 -52 56 -98 61 -100 4 -3 52
19 106 49 53 30 99 54 100 52 2 -2 -10 -279 -26 -617 -17 -338 -31 -643 -32
-679 l-3 -65 65 -22 c35 -12 71 -22 80 -22 25 -1 66 -170 90 -366 11 -93 41
-315 65 -492 l46 -322 -20 -28 c-18 -25 -68 -74 -184 -179 -21 -18 -38 -42
-38 -53 0 -40 118 -57 183 -26 23 10 46 34 62 62 26 43 62 68 77 54 5 -4 11
-35 14 -69 6 -56 9 -62 30 -62 27 0 30 14 38 149 3 65 -1 103 -19 175 -43 172
-50 282 -31 551 18 265 15 317 -29 468 -14 48 -25 92 -25 97 0 6 24 10 54 10
53 0 55 -1 61 -32 4 -18 27 -80 52 -138 56 -132 153 -385 248 -650 59 -167 75
-223 84 -305 30 -263 101 -387 170 -299 44 55 19 185 -71 374 l-40 85 -24 280
c-13 154 -30 312 -38 351 -8 40 -43 145 -79 235 l-65 164 -6 205 c-12 428 -56
679 -164 931 l-20 45 99 79 c109 86 193 171 217 222 16 34 16 36 -15 119 -2 6
14 18 35 28 58 26 92 85 92 161 0 68 -17 109 -98 242 -68 113 -70 129 -28 260
19 59 40 139 47 177 27 162 -35 303 -158 358 -34 15 -62 19 -118 17 l-74 -3
-30 41 c-37 51 -106 93 -151 93 -28 0 -43 9 -83 51 -74 78 -134 96 -195 59z
m92 -215 c-4 -8 -3 -37 1 -63 5 -36 15 -55 44 -82 45 -43 105 -65 122 -44 16
20 26 18 43 -8 39 -61 24 -108 -34 -108 -27 0 -29 -2 -24 -29 6 -28 3 -31 -47
-57 -83 -42 -152 -64 -165 -53 -7 5 -20 41 -29 79 -9 39 -20 70 -24 70 -4 0
-15 6 -25 13 -17 13 -17 15 2 51 12 21 24 62 27 91 6 43 15 62 52 104 44 50
68 66 57 36z m419 -162 c39 -44 37 -56 -67 -303 -20 -47 -36 -102 -36 -123 0
-44 -14 -41 -34 6 -11 27 -11 34 2 49 11 13 13 32 9 74 -3 31 -8 58 -10 61 -3
2 -21 -3 -41 -11 -21 -9 -38 -11 -41 -5 -10 15 5 29 31 29 39 0 110 72 134
136 11 30 20 66 20 79 0 29 11 32 33 8z m-233 -242 c0 -25 -7 -31 -61 -55 -34
-15 -63 -25 -64 -24 -1 2 -6 13 -9 25 -6 19 1 26 51 52 73 38 83 38 83 2z m94
-58 c3 -26 3 -50 -1 -54 -5 -4 -62 -36 -128 -72 l-120 -65 -7 32 c-4 17 -8 46
-10 65 l-3 34 120 53 c66 28 125 53 131 53 6 1 14 -20 18 -46z m-4 -133 c0 -3
-27 -5 -60 -5 -33 -1 -60 0 -60 2 0 1 21 14 48 27 l47 24 12 -21 c7 -12 12
-24 13 -27z m-159 -45 c-27 -31 -31 -43 -31 -95 0 -59 2 -63 95 -204 52 -80
95 -151 95 -159 0 -9 -11 -64 -25 -124 -45 -190 -41 -181 -82 -192 -47 -13
-281 -36 -289 -28 -3 3 -9 54 -14 114 -6 83 -15 125 -38 183 -47 119 -48 127
-7 195 20 33 74 110 120 171 70 92 94 116 142 142 32 17 60 32 62 32 1 0 -11
-16 -28 -35z m164 15 c38 -19 50 -34 125 -173 123 -224 236 -445 259 -505 20
-50 20 -55 5 -84 -66 -127 -464 -420 -526 -387 -42 22 -22 51 162 227 l179
173 -194 292 c-189 283 -195 294 -195 342 0 108 87 162 185 115z m-506 -209
l42 -99 -20 -33 c-28 -46 -27 -65 15 -176 30 -80 37 -115 44 -217 5 -66 8
-121 7 -122 -16 -15 -199 -104 -204 -101 -5 3 -28 45 -52 94 -25 48 -51 101
-60 117 -10 21 -11 31 -3 34 6 2 35 15 64 30 63 33 77 58 27 49 -19 -3 -43 -8
-54 -12 -13 -5 -6 6 18 29 47 45 40 63 -13 36 -54 -28 -57 -25 -21 15 59 67
24 76 -61 16 l-55 -40 -38 67 c-21 37 -49 86 -62 109 l-24 42 198 131 c109 71
201 130 204 130 3 0 25 -44 48 -99z m610 -415 l83 -125 -82 -78 c-45 -43 -86
-79 -90 -81 -4 -1 -23 24 -43 57 l-36 60 36 150 c20 83 40 148 43 146 4 -2 44
-60 89 -129z m-857 37 c-28 -32 -49 -59 -47 -62 3 -2 32 13 66 34 33 20 62 35
65 32 2 -2 -20 -23 -51 -47 -30 -23 -55 -46 -55 -50 0 -4 29 3 65 16 82 30 85
16 5 -20 -55 -25 -59 -29 -49 -47 15 -29 3 -36 -22 -13 -26 24 -59 87 -59 114
0 13 21 36 61 65 34 25 64 43 67 41 2 -3 -18 -31 -46 -63z m535 -510 c27 -3
43 -11 46 -21 3 -10 8 -24 11 -33 10 -23 -108 -102 -138 -93 -33 10 -76 44
-76 59 0 8 15 35 32 60 28 40 36 45 58 40 14 -4 44 -9 67 -12z m511 -1225
c128 -326 126 -315 157 -723 l17 -220 43 -95 c67 -149 78 -184 72 -236 -2 -25
-12 -53 -22 -63 -15 -15 -19 -13 -59 31 -46 50 -48 57 -71 253 -8 66 -204 608
-338 935 -52 126 -52 129 -25 134 13 2 57 11 98 19 111 21 105 23 128 -35z
m-456 15 c77 -7 74 -3 109 -138 26 -98 27 -133 18 -605 -3 -204 -2 -234 18
-325 l22 -99 -22 -24 c-63 -67 -195 -149 -272 -168 -25 -6 -14 8 68 88 79 78
97 101 97 125 0 16 -16 137 -35 269 -19 131 -46 334 -59 449 -25 208 -45 325
-65 378 -6 16 -11 38 -11 49 0 18 4 20 33 14 17 -4 62 -10 99 -13z"/>
<path d="M5254 5419 c-4 -7 0 -9 14 -5 11 4 23 2 27 -4 3 -5 11 -10 17 -10 7
0 6 6 -2 15 -15 18 -46 20 -56 4z"/>
<path d="M5260 5345 c0 -8 5 -15 10 -15 6 0 10 7 10 15 0 8 -4 15 -10 15 -5 0
-10 -7 -10 -15z"/>
<path d="M5285 5234 c-22 -13 -34 -24 -27 -24 20 0 72 29 72 40 0 12 4 13 -45
-16z"/>
<path d="M3665 4471 c-11 -5 -29 -19 -40 -31 -19 -21 -20 -36 -20 -437 l0
-415 28 -24 28 -24 495 0 495 0 24 26 25 27 0 413 0 413 -24 28 -24 28 -484 2
c-265 1 -492 -2 -503 -6z m1004 -37 c20 -26 21 -37 21 -431 l0 -404 -25 -24
-24 -25 -486 0 -486 0 -24 25 -25 24 0 407 c0 405 0 408 22 431 l21 23 493 0
493 0 20 -26z"/>
<path d="M3703 4363 c9 -2 25 -2 35 0 9 3 1 5 -18 5 -19 0 -27 -2 -17 -5z"/>
<path d="M4123 4316 c-173 -56 -266 -206 -241 -387 37 -275 381 -388 579 -190
97 97 126 236 78 368 -28 77 -122 172 -194 197 -69 24 -170 29 -222 12z m197
-23 c64 -21 150 -95 179 -156 47 -98 46 -218 -4 -302 -45 -75 -41 -73 -74 -41
l-29 28 24 35 c48 70 54 134 23 217 -26 71 -90 129 -160 147 -48 13 -49 14
-49 51 0 45 10 47 90 21z m-2 -102 c138 -71 163 -267 49 -368 -132 -116 -340
-50 -376 118 -40 185 158 336 327 250z"/>
<path d="M3705 4290 c-30 -8 -30 -8 8 -9 23 -1 36 3 32 9 -3 6 -7 9 -8 9 -1
-1 -15 -5 -32 -9z"/>
<path d="M3703 4213 c9 -2 23 -2 30 0 6 3 -1 5 -18 5 -16 0 -22 -2 -12 -5z"/>
<path d="M3698 4133 c12 -2 30 -2 40 0 9 3 -1 5 -23 4 -22 0 -30 -2 -17 -4z"/>
</g>
</svg>
